HIERARCHY
ROOT Hips
{
	OFFSET 0.000000 0.000000 0.000000
	CHANNELS 6 Xposition Yposition Zposition Xrotation Yrotation Zrotation
	JOINT LeftUpLeg_virtual
	{
		OFFSET 0.000000 0.000000 0.000000
		CHANNELS 3 Xrotation Yrotation Zrotation
		JOINT LeftUpLeg
		{
			OFFSET 10.205400 -3.823500 0.155100
			CHANNELS 3 Xrotation Yrotation Zrotation
			JOINT LeftLeg
			{
				OFFSET 0.708757 -12.982077 0.567790
				CHANNELS 3 Xrotation Yrotation Zrotation
				JOINT LeftFoot
				{
					OFFSET -0.708756 -10.717838 -2.184338
					CHANNELS 3 Xrotation Yrotation Zrotation
					JOINT LeftToeBase
					{
						OFFSET 0.108149 -7.191104 7.560241
						CHANNELS 3 Xrotation Yrotation Zrotation
						JOINT LeftToe_End
						{
							OFFSET 0.070230 0.081724 4.490308
							CHANNELS 3 Xrotation Yrotation Zrotation
							End Site
							{
								OFFSET 0 0 0
							}
						}
					}
				}
			}
		}
	}
	JOINT RightUpLeg_virtual
	{
		OFFSET 0.000000 0.000000 0.000000
		CHANNELS 3 Xrotation Yrotation Zrotation
		JOINT RightUpLeg
		{
			OFFSET -10.205400 -3.823500 0.005500
			CHANNELS 3 Xrotation Yrotation Zrotation
			JOINT RightLeg
			{
				OFFSET -0.708756 -12.982134 0.610632
				CHANNELS 3 Xrotation Yrotation Zrotation
				JOINT RightFoot
				{
					OFFSET 0.708754 -10.717769 -1.945823
					CHANNELS 3 Xrotation Yrotation Zrotation
					JOINT RightToeBase
					{
						OFFSET -0.108140 -7.191069 7.372968
						CHANNELS 3 Xrotation Yrotation Zrotation
						JOINT RightToe_End
						{
							OFFSET -0.070227 0.081735 4.479403
							CHANNELS 3 Xrotation Yrotation Zrotation
							End Site
							{
								OFFSET 0 0 0
							}
						}
					}
				}
			}
		}
	}
	JOINT Spine_virtual
	{
		OFFSET 0.000000 0.000000 0.000000
		CHANNELS 3 Xrotation Yrotation Zrotation
		JOINT Spine
		{
			OFFSET 0.000000 6.876099 0.125700
			CHANNELS 3 Xrotation Yrotation Zrotation
			JOINT Spine1
			{
				OFFSET 0.000000 5.730043 0.104720
				CHANNELS 3 Xrotation Yrotation Zrotation
				JOINT Spine1_split
				{
					OFFSET 0.000000 5.730043 0.104720
					CHANNELS 3 Xrotation Yrotation Zrotation
					JOINT Spine2
					{
						OFFSET 0.000000 5.730043 0.104720
						CHANNELS 3 Xrotation Yrotation Zrotation
						JOINT Neck_virtual
						{
							OFFSET 0.000000 0.000000 0.000000
							CHANNELS 3 Xrotation Yrotation Zrotation
							JOINT Neck
							{
								OFFSET 0.000000 10.314075 0.188496
								CHANNELS 3 Xrotation Yrotation Zrotation
								JOINT Head
								{
									OFFSET 0.000000 7.643700 -2.377400
									CHANNELS 3 Xrotation Yrotation Zrotation
									JOINT HeadTop_End
									{
										OFFSET 0.000000 43.788605 -13.619600
										CHANNELS 3 Xrotation Yrotation Zrotation
										End Site
										{
											OFFSET 0 0 0
										}
									}
								}
							}
						}
						JOINT LeftShoulder_virtual
						{
							OFFSET 0.000000 0.000000 0.000000
							CHANNELS 3 Xrotation Yrotation Zrotation
							JOINT LeftShoulder
							{
								OFFSET 2.196100 4.412489 0.087492
								CHANNELS 3 Xrotation Yrotation Zrotation
								JOINT LeftShoulder_split
								{
									OFFSET 2.196100 4.412489 0.087492
									CHANNELS 3 Xrotation Yrotation Zrotation
									JOINT LeftArm
									{
										OFFSET 8.771219 -2.981674 -0.026999
										CHANNELS 3 Xrotation Yrotation Zrotation
										JOINT LeftForeArm
										{
											OFFSET 8.512804 0.000000 -0.000000
											CHANNELS 3 Xrotation Yrotation Zrotation
											JOINT LeftHand
											{
												OFFSET 18.484802 0.000000 -0.000000
												CHANNELS 3 Xrotation Yrotation Zrotation
												End Site
												{
													OFFSET 0 0 0
												}
											}
										}
									}
								}
							}
						}
						JOINT RightShoulder_virtual
						{
							OFFSET 0.000000 0.000000 0.000000
							CHANNELS 3 Xrotation Yrotation Zrotation
							JOINT RightShoulder
							{
								OFFSET -2.196100 4.412496 0.070690
								CHANNELS 3 Xrotation Yrotation Zrotation
								JOINT RightShoulder_split
								{
									OFFSET -2.196100 4.412496 0.070690
									CHANNELS 3 Xrotation Yrotation Zrotation
									JOINT RightArm
									{
										OFFSET -8.771282 -2.981682 -0.094208
										CHANNELS 3 Xrotation Yrotation Zrotation
										JOINT RightForeArm
										{
											OFFSET -8.494598 0.000000 0.000000
											CHANNELS 3 Xrotation Yrotation Zrotation
											JOINT RightHand
											{
												OFFSET -18.483803 0.000000 0.000001
												CHANNELS 3 Xrotation Yrotation Zrotation
												End Site
												{
													OFFSET 0 0 0
												}
											}
										}
									}
								}
							}
						}
					}
				}
			}
		}
	}
}
MOTION
Frames: 8
Frame Time: 0.03333333
4.337414 22.642574 21.888081 0.000000 0.000000 0.000000 -9.997372 -29.580112 -5.777657 -57.534071 -15.880507 28.080962 72.984314 -9.283161 7.831447 5.529512 2.045589 -40.670228 -7.291105 -4.852214 6.536192 0.000000 0.000000 0.000000 -10.789228 -28.052683 -6.068743 -30.055001 -10.467781 -44.435339 81.182153 29.346359 -18.876543 -5.171531 -30.525932 41.143431 -9.470616 21.166847 -19.984707 0.000000 0.000000 0.000000 -7.379013 -26.236918 -6.298711 16.746746 6.742551 -8.532080 2.364084 -1.034506 1.278818 0.287142 -1.369907 0.196549 0.000000 0.000000 0.000000 9.670022 1.088429 2.564760 10.816146 22.849025 8.454589 -5.371184 11.905683 -32.730202 0.000000 0.000000 0.000000 5.359663 -1.129128 1.449742 1.288054 -6.228490 -3.077010 6.966831 -6.257427 2.807611 -64.027341 15.453737 -35.641904 174.712851 -66.263907 173.243746 0.000000 0.000000 0.000000 4.974843 -2.486501 1.001462 0.638266 7.180374 -8.459563 -11.550298 -0.349199 -4.848735 -40.313788 20.433793 86.256396 -142.733168 70.363946 141.950715 0.000000 0.000000 0.000000 
4.029049 23.123871 20.559544 0.000000 0.000000 0.000000 -9.338405 -29.696556 -4.685837 -56.626035 -14.356839 26.800904 66.701005 -7.742449 9.438426 9.203747 1.474585 -42.936089 -7.300193 -5.476837 6.954309 0.000000 0.000000 0.000000 -11.650573 -28.561823 -5.270351 -24.705201 -12.939071 -41.584022 80.085273 28.701087 -20.327953 -17.996840 -33.674817 43.346658 -2.315225 21.508472 -26.077826 0.000000 0.000000 0.000000 -8.526422 -27.626368 -5.778938 14.542270 7.530541 -7.585392 2.460403 -1.115392 0.711838 0.107788 -1.091408 0.179755 0.000000 0.000000 0.000000 9.393365 0.924447 2.010754 11.482986 21.831031 7.996557 -6.006150 8.241375 -33.196116 0.000000 0.000000 0.000000 5.563916 -1.287148 0.872804 0.940281 -3.263864 -3.090848 7.799157 -7.493730 4.431955 -63.079638 17.055669 -37.887899 172.606899 -67.537245 170.407633 0.000000 0.000000 0.000000 5.122555 -2.679875 0.554288 0.404554 7.782950 -8.265498 -11.833470 0.091761 -5.715046 -40.872286 20.967931 87.008789 -138.676637 70.864811 137.919811 0.000000 0.000000 0.000000 
3.734917 23.761013 19.213821 0.000000 0.000000 0.000000 -7.789700 -28.856392 -3.034614 -57.342525 -11.889344 26.340034 60.581251 -7.009838 10.343446 13.208912 -0.039925 -44.877751 -4.226355 -5.677955 6.913524 0.000000 0.000000 0.000000 -10.644672 -27.979586 -3.688432 -20.135213 -14.743049 -38.428311 77.557413 27.511177 -20.488553 -29.423779 -37.122276 41.398572 7.268796 20.177854 -29.796775 0.000000 0.000000 0.000000 -8.856164 -27.904297 -4.864509 12.670135 7.860454 -6.895383 2.436053 -1.236691 0.158375 -0.009237 -0.640910 0.119170 0.000000 0.000000 0.000000 8.832351 0.779154 1.363957 12.149099 20.578510 7.820608 -6.496367 4.170752 -33.581250 0.000000 0.000000 0.000000 5.640479 -1.446695 0.399891 0.661537 -0.744214 -2.671108 8.771277 -8.576517 5.343058 -62.898468 17.384264 -40.247986 172.047698 -68.884247 169.396532 0.000000 0.000000 0.000000 5.057566 -2.794331 0.168024 0.020290 8.096096 -8.619547 -10.862414 1.485846 -5.399341 -41.248769 20.578703 87.704403 -137.759752 70.603338 136.478081 0.000000 0.000000 0.000000 
3.448983 24.435856 17.934038 0.000000 0.000000 0.000000 -5.833610 -28.049842 -1.315446 -58.130654 -8.087387 26.555424 55.795040 -6.962218 10.322070 15.590679 -1.628032 -45.029139 -1.711270 -5.963163 7.850390 0.000000 0.000000 0.000000 -7.861662 -26.948940 -1.762781 -16.455242 -16.349595 -34.791570 73.694497 25.777969 -19.206434 -38.437757 -39.505227 36.176189 11.288612 19.462132 -30.880248 0.000000 0.000000 0.000000 -8.353104 -27.355531 -3.675100 11.377604 7.714703 -6.634013 2.318507 -1.382167 -0.275977 0.002220 -0.211047 0.086354 0.000000 0.000000 0.000000 8.098627 0.703168 0.798039 12.596204 19.212340 7.938217 -7.394555 0.417947 -34.119045 0.000000 0.000000 0.000000 5.530581 -1.577926 0.110909 0.422105 1.008850 -1.916246 9.660141 -8.890847 5.292748 -63.753921 16.974343 -42.220193 172.544539 -70.396608 169.732141 0.000000 0.000000 0.000000 4.717595 -2.789299 -0.046236 -0.496869 8.160071 -9.447324 -8.728012 2.734356 -3.938592 -42.075772 19.427476 88.202884 -140.093163 69.865793 137.860675 0.000000 0.000000 0.000000 
3.174291 25.103916 16.540667 0.000000 0.000000 0.000000 -3.777942 -28.047593 0.248785 -57.548845 -3.125222 26.985480 52.645582 -7.262406 9.184476 12.841327 -1.592878 -41.955878 -2.584049 -6.574641 10.195572 0.000000 0.000000 0.000000 -4.973220 -26.537839 -0.235340 -15.386449 -17.785432 -31.457215 69.524905 23.830407 -16.915337 -41.648533 -40.321059 32.426449 9.804104 19.657465 -30.207970 0.000000 0.000000 0.000000 -7.065809 -26.300825 -2.425344 10.762552 7.188159 -6.796999 2.072217 -1.519392 -0.495039 0.067382 0.081685 0.062861 0.000000 0.000000 0.000000 7.287132 0.701120 0.501802 12.574209 17.959409 8.214311 -8.781109 -2.135246 -35.015231 0.000000 0.000000 0.000000 5.186821 -1.637099 0.081502 0.196843 1.914710 -0.927019 10.119632 -8.669330 4.018196 -65.600135 16.298455 -43.709181 172.998501 -72.087053 170.236687 0.000000 0.000000 0.000000 4.199046 -2.718362 -0.024127 -1.109519 8.099888 -10.383955 -6.342994 3.347267 -2.270077 -43.409687 17.857523 88.553266 -144.108017 69.154053 140.696679 0.000000 0.000000 0.000000 
2.991296 25.750181 14.981606 0.000000 0.000000 0.000000 -1.875134 -28.910470 1.477838 -56.192516 2.217923 27.472385 52.644708 -8.064045 7.355432 5.277667 -0.970037 -36.747118 -5.280525 -7.258936 12.358827 0.000000 0.000000 0.000000 -2.569243 -27.004818 0.695117 -17.827297 -18.964813 -29.198065 66.233704 22.153483 -14.250695 -38.563972 -39.568078 32.499577 6.727461 19.743662 -28.632370 0.000000 0.000000 0.000000 -4.852819 -25.267831 -1.346317 10.638804 6.425197 -7.164355 1.679199 -1.605300 -0.448410 0.167978 0.209201 0.069540 0.000000 0.000000 0.000000 6.460347 0.764109 0.546479 12.132274 17.093472 8.447484 -10.627671 -3.247753 -36.236800 0.000000 0.000000 0.000000 4.647035 -1.604282 0.300498 -0.008963 2.140498 0.084711 9.759870 -8.003789 2.064190 -68.007989 15.766392 -44.850833 171.998957 -73.923069 169.395959 0.000000 0.000000 0.000000 3.573758 -2.589882 0.238735 -1.713354 8.021618 -11.192069 -4.212780 3.123655 -1.144079 -45.013733 16.518640 88.900274 -148.124687 68.940965 143.482166 0.000000 0.000000 0.000000 
2.851454 26.379023 13.261309 0.000000 0.000000 0.000000 0.206271 -29.928796 2.191096 -54.567102 6.703955 27.743119 56.333980 -9.269600 5.281705 -3.174242 -1.375788 -31.158558 -5.914664 -7.379501 12.287939 0.000000 0.000000 0.000000 -0.573404 -28.170678 1.176596 -22.435754 -19.952453 -28.100384 64.019226 21.340144 -11.716737 -33.588630 -36.780248 34.104016 5.069153 19.145562 -27.172217 0.000000 0.000000 0.000000 -1.700392 -24.621201 -0.523432 10.674498 5.575482 -7.447429 1.119235 -1.620437 -0.176537 0.250222 0.176289 0.083081 0.000000 0.000000 0.000000 5.653208 0.861876 0.902329 11.576266 16.787113 8.326913 -12.427919 -3.019531 -37.601899 0.000000 0.000000 0.000000 3.962108 -1.504384 0.692058 -0.186968 2.108061 0.923810 8.819506 -7.430622 0.259808 -70.380796 15.569857 -45.768681 168.568796 -75.612694 166.114463 0.000000 0.000000 0.000000 2.856345 -2.456952 0.675661 -2.130254 7.976161 -11.687199 -2.295185 1.948064 -0.637380 -46.781550 15.662220 89.383141 -151.588085 69.228557 145.836464 0.000000 0.000000 0.000000 
2.719093 27.023289 11.379929 0.000000 0.000000 0.000000 2.476374 -30.885952 2.392880 -52.423532 8.940888 27.315624 62.181824 -11.323481 3.946763 -8.780009 -3.071424 -28.054025 -5.536142 -6.883182 10.157043 0.000000 0.000000 0.000000 1.461979 -29.394105 1.449683 -27.000747 -20.646086 -27.508085 61.979431 21.593891 -9.483697 -30.597219 -32.200497 34.336980 5.693991 17.978166 -26.325562 0.000000 0.000000 0.000000 1.657491 -24.751269 -0.099057 10.571574 4.791839 -7.418053 0.404231 -1.592983 0.197406 0.284287 0.086398 0.096059 0.000000 0.000000 0.000000 4.858164 0.939288 1.424809 11.088249 17.119253 7.772271 -13.346187 -1.502964 -38.808349 0.000000 0.000000 0.000000 3.169849 -1.375223 1.147716 -0.346582 2.225631 1.570865 7.592935 -7.471697 -1.051475 -72.465609 15.424205 -46.629602 162.401025 -76.894468 159.972033 0.000000 0.000000 0.000000 2.121255 -2.385651 1.126033 -2.289669 7.989201 -11.879546 -1.128980 0.331169 -0.519148 -48.528894 15.538926 90.068701 -154.542592 69.648914 147.946487 0.000000 0.000000 0.000000 
